<?xml version="1.0" encoding="UTF-8" standalone="no"?>
<svg
   xmlns:dc="http://purl.org/dc/elements/1.1/"
   xmlns:cc="http://creativecommons.org/ns#"
   xmlns:rdf="http://www.w3.org/1999/02/22-rdf-syntax-ns#"
   xmlns:svg="http://www.w3.org/2000/svg"
   xmlns="http://www.w3.org/2000/svg"
   viewBox="0 0 145.88533 145.888"
   height="145.888"
   width="145.88533"
   xml:space="preserve"
   id="svg2"
   version="1.1"><metadata
     id="metadata8"><rdf:RDF><cc:Work
         rdf:about=""><dc:format>image/svg+xml</dc:format><dc:type
           rdf:resource="http://purl.org/dc/dcmitype/StillImage" /></cc:Work></rdf:RDF></metadata><defs
     id="defs6"><clipPath
       id="clipPath18"
       clipPathUnits="userSpaceOnUse"><path
         id="path16"
         d="M 0,109.416 H 109.414 V 0 H 0 Z" /></clipPath><clipPath
       id="clipPath26"
       clipPathUnits="userSpaceOnUse"><path
         id="path24"
         d="M 0.00138855,109.414 H 109.413 V 0.00242615 H 0.00138855 Z" /></clipPath></defs><g
     transform="matrix(1.3333333,0,0,-1.3333333,0,145.888)"
     id="g10"><g
       id="g12"><g
         clip-path="url(#clipPath18)"
         id="g14"><g
           id="g20"><g
             id="g22" /><g
             id="g34"><g
               style="opacity:0"
               id="g32"
               clip-path="url(#clipPath26)"><g
                 id="g30"
                 transform="translate(54.7073,0.0022)"><path
                   id="path28"
                   style="fill:#ffffff;fill-opacity:1;fill-rule:nonzero;stroke:none"
                   d="m 0,0 c -30.213,0 -54.706,24.493 -54.706,54.706 0,30.213 24.493,54.706 54.706,54.706 30.213,0 54.706,-24.493 54.706,-54.706 C 54.706,24.493 30.213,0 0,0" /></g></g></g></g><g
           transform="translate(104.4383,31.8879)"
           id="g36"><path
             id="path38"
             style="fill:#0f45c7;fill-opacity:1;fill-rule:nonzero;stroke:none"
             d="m 0,0 c 3.193,6.945 4.976,14.675 4.976,22.823 0,30.213 -24.491,54.705 -54.707,54.705 -30.214,0 -54.707,-24.492 -54.707,-54.705 0,-30.216 24.493,-54.711 54.707,-54.711 20.489,0 38.342,11.265 47.715,27.939 H -6.53 V 7.533 L -15.168,-4.309 V 7.533 l -8.653,-11.847 v 17.689 h -2.425 c 0.338,1.289 0.604,2.607 0.806,3.945 h 0.002 5.232 V 6.005 l 8.624,11.817 V 6.005 L -2.923,17.87 V 0 Z m -25.413,17.499 h -5.148 c 0.29,1.731 0.445,3.508 0.445,5.324 0,17.81 -14.492,32.3 -32.303,32.3 -6.075,0 -11.994,-1.699 -17.119,-4.909 l 2.616,-4.172 c 4.338,2.717 9.359,4.153 14.503,4.153 15.096,0 27.373,-12.281 27.373,-27.372 0,-1.822 -0.181,-3.6 -0.523,-5.324 h -9.375 V 33.45 L -53.62,21.556 -53.624,33.404 -62.25,21.585 V 42.046 L -74.089,23.264 V 42.029 L -93.906,10.83 c 0.567,-1.476 1.226,-2.901 1.988,-4.275 l 13.879,21.721 V 10.52 l 11.847,18.793 V 10.54 l 8.65,11.849 V 10.547 l 8.64,11.838 V 13.2 h 12.107 C -40.696,2.839 -50.709,-4.555 -62.419,-4.555 c -5.138,0 -10.142,1.435 -14.48,4.141 l -2.608,-4.178 c 5.117,-3.198 11.028,-4.886 17.088,-4.886 14.462,0 26.732,9.549 30.837,22.678 h 5.292 c -4.256,-15.964 -18.835,-27.76 -36.121,-27.76 -20.612,0 -37.381,16.773 -37.381,37.383 0,20.609 16.769,37.381 37.381,37.381 20.613,0 37.378,-16.772 37.378,-37.381 0,-1.811 -0.13,-3.586 -0.38,-5.324" /></g></g></g></g></svg>